<?xml version="1.0" encoding="UTF-8"?>
<svg id="_Слой_1" data-name="Слой_1" xmlns="http://www.w3.org/2000/svg" version="1.1" viewBox="0 0 1920 1080">
  <!-- Generator: Adobe Illustrator 30.1.0, SVG Export Plug-In . SVG Version: 2.1.1 Build 136)  -->
  <defs>
    <style>
      .st0 {
        fill: none;
      }

      .st1 {
        stroke: #000;
        stroke-linecap: round;
        stroke-linejoin: round;
        stroke-width: 8px;
      }

      .st1, .st2 {
        fill: #ff9bac;
      }

      .st3 {
        fill: #fed899;
      }

      .st4 {
        fill: #fff;
      }

      .st5 {
        fill: #ffd08c;
      }
    </style>
  </defs>
  <g>
    <path class="st2" d="M658.54,106.06c-38.56-71.44-144.69-14.5-192.37,21.32-101.41,75.96-147.72,155.02-178.24,215.56-49.43,99.88-111.25,260.91-28.94,373.29,21.64,29.23,63.07,60.87,103.42,48.14,31.51-10.2,53.52-38.72,68.88-66.81,27.4-50.52,20.96-87.26,22.53-140.67,2.22-56.97,11.75-123.61,36.59-181.16,22.19-51.02,71.57-104.91,112.44-155.39,13.25-16.03,25.43-30.12,37.64-46.97,13.61-19.21,29.23-44.06,18.17-67.03l-.12-.27h0Z"/>
    <path d="M343.71,770.99c-33.59,0-66.94-24.41-87.75-52.51-36.96-50.46-48.94-115.8-35.63-194.22,9.27-54.56,30.27-114.42,64.21-183,33.09-65.62,80.26-142.69,179.36-216.91,41.85-31.43,107.13-64.55,153.37-54.41,19.61,4.3,34.61,15.85,44.59,34.32.03.06.07.13.1.2l.12.27c12.81,26.61-7.56,55.36-18.51,70.81-9.95,13.73-19.81,25.57-30.25,38.1-2.48,2.98-5,6-7.56,9.09-7.62,9.41-15.72,19.17-23.55,28.6-34.66,41.74-70.5,84.89-88.34,125.9-26.6,61.63-34.41,131.79-36.28,179.8-.3,10.12-.3,19.65-.31,28.86-.03,38.5-.05,71.76-22.67,113.46-20.12,36.78-44.02,59.85-71.04,68.6-6.57,2.07-13.23,3.03-19.87,3.03h.01ZM598.62,75.57c-17.43,0-37.77,4.86-60.72,14.55-32.61,13.76-59.44,32.75-69.46,40.28-97.85,73.29-144.46,149.43-177.14,214.24-33.6,67.88-54.38,127.06-63.52,180.89-12.96,76.32-1.44,139.73,34.26,188.47,23.32,31.5,63.06,58.18,99.24,46.76,25.1-8.12,47.55-30,66.71-65.02,21.7-40.01,21.72-70.83,21.75-109.85,0-9.27,0-18.86.31-29.12,1.9-48.69,9.83-119.84,36.9-182.55,18.27-42,54.46-85.58,89.46-127.72,7.82-9.41,15.9-19.15,23.51-28.55,2.59-3.13,5.11-6.16,7.6-9.15,10.36-12.43,20.14-24.17,29.92-37.67,25.24-35.62,23.48-51.41,17.82-63.17l-.1-.21c-8.88-16.4-22.17-26.64-39.5-30.44-5.32-1.17-11.01-1.75-17.04-1.75h0Z"/>
  </g>
  <g>
    <path class="st5" d="M408.62,317.25c-39.1,55.25-59.98,105.81-71.67,141.5-15.96,48.74-53.95,164.78-3.77,211.12,15.57,14.38,41.19,23.49,61.11,16.08,23.43-8.72,31.75-37.61,40.12-66.72,4.44-15.42.7-20.3,13.62-116.85,3.03-22.66,5.32-44.25,11.88-66.4,2.81-9.72,6.32-20.07,10.16-30.13,31.81-87.27,105.34-151.08,100.57-185.6-1.35-11.01-10.02-18.77-21.54-22.02-6.57-1.85-23.6-5.4-66.45,31.52-19.94,17.18-47.82,45.08-74.03,87.49h0Z"/>
    <path d="M379.03,692.34c-17.85,0-36.48-8.67-48.41-19.7-51.96-47.99-13.63-165.07,2.74-215.07,16.39-50.05,40.67-97.99,72.17-142.51l.09-.14c24.35-35.01,48.69-63.75,74.44-87.93.04-.03.07-.07.11-.1,5.72-4.98,11.64-10.12,17.83-14.89,1.65-1.27,4.03-.97,5.3.69,1.27,1.65.97,4.03-.69,5.3-5.99,4.62-11.8,9.67-17.43,14.56-25.69,24.13-48.99,51.66-73.32,86.64l-.11.16c-31.11,43.97-55.06,91.24-71.21,140.57-15.92,48.62-53.2,162.47-4.8,207.16,14.04,12.97,38.21,22.39,57.23,15.32,21.65-8.05,29.49-35.33,37.8-64.22,1.84-6.39,2.2-10.97,3.08-22.05,1.18-14.93,3.15-39.91,10.43-94.26.38-2.86.75-5.71,1.12-8.54,2.6-19.95,5.06-38.79,10.88-58.43,2.77-9.58,6.32-20.1,10.25-30.41,21.22-55.64,88.46-152.71,96.06-163.59,1.2-1.71,3.55-2.13,5.26-.94s2.13,3.55.94,5.26c-7.54,10.81-74.3,107.17-95.2,161.96-3.86,10.11-7.34,20.43-10.06,29.84-5.65,19.09-8.08,37.64-10.64,57.29-.37,2.84-.74,5.69-1.13,8.56-7.25,54.15-9.21,79-10.39,93.85-.89,11.27-1.3,16.42-3.35,23.54-8.46,29.42-17.21,59.83-42.43,69.21-5.29,1.97-10.9,2.85-16.58,2.85l.02.02Z"/>
  </g>
  <g>
    <path class="st2" d="M1324.02,25.11c128.59,12.41,235.81,140.21,299.77,235.42,68.18,101.47,144.35,246.4,88.51,393.75-26.8,76.34-88.97,166.99-188.19,165.12-95.91-2.99-196.75-91.02-181.42-192.13,2.85-22.43,8.87-43.71,13.49-66.23,9.7-42.26,8.93-87.99-6.79-130.02-29.72-78.59-87.96-147.87-130.33-199.13-24-29.82-56.51-61.87-52.14-103.56,9.92-72.65,89.8-109.57,156.8-103.23l.29.03v-.02Z"/>
    <path d="M1527.17,823.2c-1.04,0-2.09,0-3.13-.03-54.41-1.69-111-30.13-147.72-74.22-30.5-36.61-43.76-80.02-37.36-122.25,1.92-15.12,5.35-30.08,8.67-44.53,1.64-7.13,3.33-14.5,4.85-21.89,10.26-44.71,7.96-88.92-6.63-127.94-28.72-75.94-85.15-144.18-126.36-194l-3.34-4.04c-3.11-3.86-6.26-7.64-9.6-11.65-22.2-26.63-47.35-56.81-43.38-94.71,10.15-74.34,91.41-113.18,160.91-106.6l.27.02h.03c58.12,5.61,117.43,35.08,176.28,87.6,42.84,38.24,85.32,88.52,126.27,149.47,45.07,67.08,74.06,124.49,91.24,180.67,23.62,77.26,22.84,150.11-2.33,216.52-15.51,44.17-39.59,84.4-67.77,113.19-35.34,36.1-76,54.39-120.89,54.39h-.01ZM1308.62,28.16c-62.29,0-129.12,36.04-137.95,100.67-3.63,34.61,19.41,62.24,41.68,88.97,3.21,3.86,6.54,7.84,9.65,11.71l3.31,4c41.54,50.23,98.44,119.03,127.61,196.16,15.12,40.42,17.52,86.13,6.94,132.2-1.51,7.39-3.22,14.81-4.86,21.98-3.43,14.94-6.67,29.04-8.56,43.89-6.09,40.16,6.59,81.45,35.68,116.37,35.39,42.48,89.84,69.88,142.11,71.5,43.88.86,83.78-16.7,118.43-52.09,27.43-28.02,50.9-67.26,66.07-110.5,56.31-148.62-23.3-293.98-88.08-390.39-67.21-100.05-173.29-221.81-296.98-233.76l-.28-.02c-4.87-.46-9.81-.69-14.77-.69h0Z"/>
  </g>
  <g>
    <path class="st3" d="M1306.97,170.05c57.41,12.24,105.93,53.7,139.28,90.09,76.66,93.95,206.23,254.45,149.65,402.35-12.78,34.4-45,80.55-92.23,86.24-51.54,6.5-109.95-26.75-135.19-73.83-21.83-39.17-5.74-77.68,1.22-118.54,6.74-34.42,2.27-76.67-9.94-110.01-10.4-32.45-43.71-99.01-77.3-141.56-18.14-24.67-41.89-51-43.34-81.38-1.21-21.01,11.03-40.34,30.3-49.83,11.71-5.65,24.61-6.23,37.21-3.58l.33.07v-.02Z"/>
    <path d="M1490.61,753.31c-21.74,0-44.8-6.25-66.23-18.1-25.53-14.12-46.57-34.91-59.23-58.53-18.08-32.44-10.97-65.06-4.09-96.6,1.73-7.96,3.53-16.18,4.92-24.36,6.41-32.76,2.66-74.14-9.76-108.08-.02-.05-.03-.1-.05-.15-9.54-29.77-42.33-96.89-76.67-140.38-.03-.03-.05-.07-.08-.1-2.63-3.58-5.33-7.13-8.19-10.88-17-22.34-34.59-45.45-35.88-72.56-1.27-22.1,11.44-43.07,32.4-53.4,11.73-5.66,25.07-6.96,39.66-3.89l.29.06s.04,0,.06.01c47.57,10.14,95.1,40.84,141.27,91.23.05.05.1.11.14.16,35.69,43.73,89.62,109.82,125.25,181.65,19.21,38.73,31.49,75.9,36.48,110.49,5.84,40.43,1.98,78.77-11.48,113.94-13.84,37.24-47.11,82.83-95.3,88.64-4.42.56-8.94.83-13.5.83v.02ZM1363.34,445.12c12.85,35.15,16.71,78.04,10.07,111.96-1.4,8.26-3.22,16.57-4.97,24.61-6.88,31.56-13.38,61.37,3.34,91.37,24.93,46.5,82.63,78.07,131.41,71.92,20.53-2.48,39.62-12.97,56.75-31.19,13.52-14.38,25.33-33.55,32.41-52.62,13-33.99,16.72-71.05,11.07-110.19-4.88-33.8-16.92-70.21-35.77-108.22-35.24-71.02-88.79-136.68-124.27-180.15-45.05-49.15-91.21-79.05-137.18-88.86l-.3-.06c-12.97-2.73-24.67-1.63-34.84,3.28-18.2,8.97-29.27,27.11-28.17,46.21,1.18,24.8,18.04,46.96,34.34,68.38,2.74,3.6,5.57,7.32,8.23,10.93,35.3,44.73,67.88,111.52,77.87,142.63h.01Z"/>
  </g>
  <path class="st2" d="M1453.79,501.76c0-260.71-228.98-472.06-511.44-472.06s-511.44,211.35-511.44,472.06c0,171.71,46.15,383.5,84.46,475.86,28.28,68.19,48.64,86.86,75.96,86.63,46.78-.39,84.22-105.38,143.49-106.29,58.52-.89,91.84,15.43,203.23,15.84.17,0,.33,0,.49,0,.64,0,1.27,0,1.91,0,.64,0,1.26,0,1.91,0,2.66,0,5.32-.03,7.97-.06,105.44-1.09,138.57-16.66,195.75-15.79,59.26.91,96.71,105.9,143.49,106.29,27.32.23,47.68-18.44,75.96-86.63,34.42-82.99,88.27-263.53,88.27-475.86Z"/>
  <g>
    <path class="st2" d="M1183.06,85.16c-71.74-35.39-153.69-55.45-240.72-55.45-105.36,0-203.28,29.41-284.65,79.81"/>
    <path d="M657.7,113.52c-1.34,0-2.65-.67-3.4-1.89-1.16-1.88-.58-4.34,1.29-5.51,84.92-52.6,184.08-80.41,286.75-80.41,84.55,0,168.4,19.32,242.49,55.86,1.98.98,2.79,3.38,1.82,5.36s-3.38,2.79-5.36,1.82c-73-36.01-155.62-55.04-238.95-55.04-101.18,0-198.89,27.39-282.54,79.21-.66.41-1.38.6-2.1.6Z"/>
  </g>
  <path class="st1" d="M1183.06,85.16"/>
  <g>
    <path class="st2" d="M950.32,973.76c105.44-1.09,159.95,1.22,200.44,15.51,55.89,19.73,92.02,74.6,138.8,74.99,27.32.23,47.68-18.44,75.96-86.63,34.42-82.99,88.27-263.53,88.27-475.86,0-139.91-65.95-265.61-170.72-352.05"/>
    <path d="M1290.05,1068.26c-.17,0-.34,0-.52,0-27.31-.23-50.81-17.86-75.69-36.53-19.74-14.81-40.14-30.12-64.4-38.68-40.6-14.33-96.54-16.35-199.07-15.28-2.23-.02-4.02-1.75-4.04-3.96-.02-2.21,1.75-4.02,3.96-4.04,103.49-1.07,160.08,1.01,201.82,15.74,25.42,8.97,46.32,24.66,66.54,39.83,23.8,17.86,46.28,34.73,70.96,34.93.13,0,.26,0,.39,0,30.89,0,49.75-30.88,71.84-84.17,14.69-35.42,87.96-224.75,87.96-474.33,0-67.78-15.36-133.15-45.66-194.3-29.29-59.12-70.87-111.16-123.61-154.67-1.7-1.41-1.95-3.93-.54-5.63,1.41-1.7,3.93-1.94,5.63-.54,53.61,44.23,95.9,97.15,125.69,157.29,30.85,62.27,46.49,128.84,46.49,197.85,0,94.64-10.54,191.3-31.32,287.28-20.52,94.77-44.68,159.79-57.25,190.11-27.24,65.68-48.01,89.1-79.17,89.1Z"/>
  </g>
  <g>
    <path class="st2" d="M572.47,175.74c-87.71,84.74-141.57,199.58-141.57,326.03,0,171.71,46.15,383.5,84.46,475.86,28.28,68.19,48.64,86.86,75.96,86.63,46.78-.39,104.55-61.64,161.04-79.59,63.87-20.3,86.57-11.32,197.96-10.91"/>
    <path d="M590.83,1068.26c-31.16,0-51.93-23.42-79.17-89.1-19.8-47.74-41.04-125.86-56.83-208.96-18.01-94.84-27.93-190.17-27.93-268.43,0-123.13,50.71-239.93,142.79-328.9,1.59-1.54,4.12-1.49,5.66.1,1.54,1.59,1.49,4.12-.1,5.66-90.51,87.45-140.35,202.21-140.35,323.15,0,77.77,9.87,172.57,27.79,266.94,15.69,82.6,36.76,160.12,56.36,207.39,29.3,70.65,48.67,84.34,72.23,84.16,24.96-.21,53.82-18.96,84.38-38.81,24.59-15.98,50.02-32.5,75.48-40.59,47.24-15.01,71.85-14.25,125.78-12.56,19.3.6,43.32,1.35,73.41,1.46,2.21,0,3.99,1.81,3.99,4.01,0,2.2-1.8,3.99-4,3.99h-.02c-30.2-.11-54.28-.86-73.63-1.47-52.99-1.66-77.17-2.41-123.1,12.19-24.42,7.76-49.39,23.99-73.54,39.67-31.56,20.51-61.38,39.88-88.67,40.11-.17,0-.35,0-.52,0Z"/>
  </g>
  <g>
    <path d="M611.4,891.8h.01-.01Z"/>
    <path class="st0" d="M1110.27,947.59"/>
    <path class="st4" d="M1133.18,477.27c-41.86,38.33-107.1,17.77-142.45-20.28-4.41-3.35-9.49-2.25-14.22-.05-6.29,2.89-12.95,5.43-19.72,7.26-24.93,6.85-52.4,5.98-76.65-2.57-8.37-2.66-17.47-9.7-25.13-1.72-23.91,26.49-63.54,42.85-98.8,36.74-19.55-3.08-41.91-18.03-50.95-36.19-33.71-59.94,32.43-123.58,95.32-110.39,8.46,1.85,13.28.05,16.36-8.17,3.75-9.18,9.04-17.85,15.7-25.55,34.91-40.47,98.38-49.63,145.59-26.22,10.88,5.35,20.97,12.47,29.4,20.96,6.35,6.37,11.72,13.53,15.97,21.16,2.19,3.88,4.52,6.9,7.89,7.71,2.81.77,6.35.04,10.23-1.01,56.98-17.74,126.5,33.47,115.42,93.39-3.13,17.18-10.39,32.3-23.68,44.69l-.28.25h0Z"/>
    <path class="st4" d="M669.5,751.8c-54.46-3.16-114.17-46.52-122.06-101.97-1.28-9.02-4.9-34.46,9.61-52.23,17.81-21.81,50.72-17.1,60.14-15.75,55.38,7.94,84.61,62.3,90.26,73.81,4.12,8.39,29.87,60.78,7.5,84.98-12.11,13.1-32.74,11.91-45.45,11.17h0Z"/>
    <path d="M680.55,755.98c-4.13,0-7.98-.22-11.28-.41-23.63-1.37-48.57-10.1-70.23-24.58-22.28-14.9-39.56-35-48.64-56.6-.81-1.92.09-4.14,2.02-4.95,1.92-.81,4.14.09,4.95,2.02,17.22,40.94,65.52,73.85,112.34,76.57,12.56.73,31.55,1.83,42.45-9.96,8.5-9.2,10.28-24.33,5.29-44.97-2.69-11.13-7.2-23.17-13.41-35.78-4.56-9.29-21.86-41.01-52.74-59.33-1.8-1.06-2.39-3.38-1.32-5.18,1.07-1.8,3.38-2.39,5.18-1.32,32.68,19.38,50.88,52.74,55.67,62.5,9.33,18.97,28.67,65.65,6.88,89.21-9.98,10.8-24.83,12.79-37.17,12.79h.01Z"/>
    <path d="M716.55,733.15c-1.12,0-2.22-.49-2.97-1.44l-24.12-30.55c-1.29-1.64-1.01-4.02.62-5.31,1.64-1.29,4.01-1.01,5.31.62l24.12,30.56c1.29,1.64,1.01,4.01-.62,5.31-.69.55-1.52.81-2.34.81h0Z"/>
    <path d="M701.04,750.82c-.74,0-1.48-.22-2.14-.66l-32.74-22.49c-1.72-1.18-2.16-3.53-.97-5.25,1.18-1.72,3.54-2.15,5.25-.97l32.74,22.49c1.72,1.18,2.16,3.53.97,5.25-.73,1.07-1.92,1.64-3.12,1.64h0Z"/>
    <path class="st4" d="M1205.24,726.07c54.46-3.16,114.17-46.52,122.06-101.97,1.28-9.02,4.9-34.46-9.61-52.23-17.81-21.81-50.72-17.1-60.14-15.75-55.38,7.94-84.61,62.3-90.26,73.81-4.12,8.39-29.87,60.78-7.5,84.98,12.11,13.1,32.74,11.91,45.45,11.17h0Z"/>
    <path d="M1194.18,730.25c-12.34,0-27.18-1.99-37.17-12.79-21.79-23.57-2.44-70.24,6.88-89.21,4.53-9.22,17.51-32.69,40.11-51.47,1.61-1.33,3.99-1.11,5.32.49,1.33,1.61,1.11,3.99-.49,5.32-22.08,18.35-34.79,42.14-38.16,48.99-6.2,12.61-10.71,24.65-13.41,35.78-4.99,20.64-3.22,35.77,5.29,44.97,10.9,11.79,29.89,10.69,42.45,9.96,63.03-3.65,112.18-54,118.54-98.73.29-2.07,2.2-3.5,4.27-3.21s3.5,2.21,3.21,4.27c-8.4,59.07-71.72,102.09-125.58,105.21-3.29.19-7.15.41-11.28.41h.02Z"/>
    <path d="M1158.18,707.42c-.82,0-1.65-.27-2.34-.81-1.64-1.29-1.92-3.67-.62-5.31l24.12-30.56c1.29-1.64,3.67-1.92,5.31-.62,1.64,1.29,1.92,3.67.62,5.31l-24.12,30.56c-.75.94-1.85,1.44-2.97,1.44h0Z"/>
    <path d="M1173.69,725.09c-1.2,0-2.39-.57-3.12-1.64-1.18-1.72-.75-4.07.97-5.25l32.74-22.49c1.72-1.18,4.07-.75,5.25.97s.75,4.07-.97,5.25l-32.74,22.49c-.65.45-1.4.66-2.14.66h.01Z"/>
    <path d="M836.55,387.39c-.98,0-1.95-.38-2.69-1.13-6.84-6.93-15.21-12.17-24.23-15.15-18.27-6.04-34.44-1.63-42.46,1.53-1.94.77-4.14-.19-4.9-2.13-.77-1.94.19-4.14,2.13-4.9,8.97-3.54,27.07-8.47,47.6-1.68,10.15,3.35,19.56,9.24,27.24,17.02,1.47,1.49,1.45,3.88-.04,5.34-.74.73-1.7,1.09-2.65,1.09h0Z"/>
    <path d="M762.47,418.14c-2.19,0-4.38-.07-6.57-.21-2.08-.13-3.67-1.93-3.53-4.01.13-2.08,1.93-3.65,4.01-3.53,10.46.66,20.88-.38,30.94-3.09,12.39-3.34,23.84-9.07,34.04-17.02,1.65-1.28,4.02-.99,5.3.66s.99,4.02-.66,5.3c-11,8.58-23.35,14.76-36.72,18.36-8.75,2.36-17.75,3.55-26.81,3.55h0Z"/>
    <path d="M1005.41,377.74c-.97,0-1.94-.37-2.68-1.11-1.47-1.48-1.46-3.87.02-5.34,7.82-7.77,17.41-13.65,27.74-17,20.9-6.77,39.33-1.85,48.46,1.68,1.95.75,2.91,2.94,2.16,4.89-.75,1.95-2.94,2.91-4.89,2.16-8.19-3.17-24.72-7.59-43.4-1.54-9.21,2.98-17.77,8.23-24.75,15.17-.74.73-1.7,1.1-2.66,1.1h0Z"/>
    <path d="M1080.96,408.49c-9.24,0-18.39-1.19-27.31-3.54-13.62-3.6-26.21-9.77-37.42-18.34-1.66-1.27-1.97-3.64-.71-5.3,1.27-1.66,3.64-1.97,5.3-.71,10.41,7.96,22.1,13.69,34.76,17.04,10.28,2.72,20.92,3.76,31.61,3.1,2.1-.13,3.88,1.46,4.01,3.54.13,2.08-1.46,3.88-3.54,4-2.23.14-4.47.21-6.69.21h-.01Z"/>
    <g>
      <path class="st5" d="M958.77,317.67c1.52,11.09-20.62,25.95-41.64,27.26-20.16,1.25-43.45-9.73-43.59-20.82-.14-10.97,22.36-20.93,40.2-22.51,18.97-1.69,43.53,5.12,45.03,16.08h0Z"/>
      <path d="M913.97,348.81c-14.17,0-29.77-5.24-38.17-13.04-3.9-3.62-5.99-7.64-6.04-11.61-.19-14.44,25.69-24.73,43.65-26.33,19.16-1.71,47.13,4.83,49.11,19.33.55,4.01-1.01,8.38-4.5,12.65-8.19,10-25.29,17.94-40.65,18.89-1.12.07-2.25.1-3.39.1h-.01ZM919.83,305.11c-1.94,0-3.86.08-5.76.25-17.96,1.6-36.86,11.21-36.76,18.7.02,1.83,1.31,4.02,3.63,6.17,7.58,7.03,23.03,11.73,35.95,10.93,15.09-.93,29.43-9.01,35.28-16.14,2.09-2.56,3.11-4.98,2.86-6.83h0c-.95-6.96-18.3-13.08-35.19-13.08h0Z"/>
    </g>
    <path d="M903.41,407.73c4.35-7.79,9.55-19.25,11.94-33.77,2.5-15.21,1.11-28.93,1.61-28.95.48-.02-.04,12.77,3.22,25.73,4.3,17.11,13.9,29.38,21.22,36.99h-37.99Z"/>
    <g>
      <path class="st4" d="M912.13,441.5c-2.18.36-4.31.71-6.43,0-5.38-1.8-7.16-9.19-8.04-12.87-.81-3.36-3.08-12.83,2.12-17.27,1.53-1.31,3.29-1.81,4.58-2.03h12.59c1.06.08,3.07.41,4.58,2.03,1.62,1.74,1.81,4.07,1.89,6.01.52,12.01.35,18.03-3,20.91-2.67,2.29-6.3,2.89-8.27,3.22h-.02Z"/>
      <path d="M908.4,444.43c-1.14,0-2.31-.14-3.5-.54-6.71-2.24-8.72-10.63-9.69-14.67-.94-3.92-3.44-14.34,2.93-19.77,1.57-1.34,3.52-2.22,5.79-2.6l.42-.03h12.78c2.54.2,4.69,1.18,6.23,2.83,2.35,2.53,2.49,5.84,2.57,7.62.55,12.84.35,19.29-3.88,22.93-3.21,2.76-7.3,3.43-9.5,3.79-1.29.21-2.68.44-4.14.44h-.01ZM904.57,411.86c-1.27.24-2.33.72-3.16,1.43-4.02,3.43-1.97,11.96-1.3,14.76.76,3.15,2.33,9.71,6.39,11.06,1.54.51,3.25.23,5.23-.1h0c1.71-.28,4.9-.81,7.04-2.64,2.43-2.09,2.62-7.51,2.13-18.89-.07-1.71-.22-3.33-1.22-4.4-.81-.87-1.97-1.15-2.83-1.23h-12.28Z"/>
    </g>
    <g>
      <path class="st4" d="M932.08,439.9c2.18.36,4.31.71,6.43,0,5.38-1.8,7.16-9.19,8.04-12.87.81-3.36,3.08-12.83-2.12-17.27-1.53-1.31-3.29-1.81-4.58-2.03h-12.59c-1.06.08-3.07.41-4.58,2.03-1.62,1.74-1.81,4.07-1.89,6.01-.52,12.01-.35,18.03,3,20.91,2.67,2.29,6.3,2.89,8.27,3.22h.02Z"/>
      <path d="M935.81,442.82c-1.45,0-2.84-.23-4.14-.44h0c-2.2-.36-6.3-1.04-9.5-3.79-4.23-3.63-4.43-10.08-3.88-22.92.08-1.78.22-5.09,2.57-7.62,1.54-1.66,3.69-2.63,6.23-2.83h.19l13.01.03c2.27.38,4.22,1.26,5.79,2.6,6.37,5.44,3.87,15.85,2.93,19.77-.97,4.03-2.98,12.43-9.69,14.67-1.19.4-2.37.54-3.5.54h0ZM932.49,437.41c1.98.32,3.69.61,5.23.1,4.06-1.35,5.63-7.91,6.39-11.06.67-2.8,2.72-11.33-1.3-14.76-.83-.7-1.89-1.18-3.16-1.43h-12.26c-1.23.11-2.18.52-2.83,1.23-1,1.08-1.15,2.7-1.22,4.4-.49,11.38-.3,16.8,2.13,18.89,2.13,1.83,5.32,2.36,7.04,2.64h-.02Z"/>
    </g>
    <path d="M855.37,443.48c-18.02,0-31.95-8.87-33.78-10.09-12.53-8.35-19.04-19.53-22.3-27.43-.8-1.93.12-4.14,2.05-4.93,1.93-.8,4.14.12,4.93,2.05,2.86,6.94,8.57,16.73,19.51,24.03.78.52,19.41,12.71,40.42,7.52,28.98-7.16,42.19-41.89,45.43-61.28,1.5-9.01,1.4-18.04,1.33-23.44-.06-4.95-.1-8.53,3.87-8.66,3.97-.16,4.16,3.42,4.39,7.93.25,4.83.67,12.92,2.62,20.66,6.19,24.69,29.71,52.95,61.11,56.67,15.37,1.82,28.53-1.19,39.14-8.95,7.09-5.18,12.77-12.43,16.45-20.96.83-1.92,3.05-2.8,4.97-1.97s2.8,3.05,1.97,4.97c-4.21,9.77-10.76,18.09-18.93,24.07-12.2,8.92-27.17,12.41-44.49,10.35-32.06-3.8-56.66-30.54-65.63-55.97-4.48,21.65-19.35,56.25-50.42,63.93-4.36,1.08-8.6,1.52-12.64,1.52v-.02Z"/>
    <g>
      <ellipse cx="584.68" cy="423.81" rx="31.17" ry="43.42"/>
      <path class="st4" d="M583.21,417.69c-.89,8.88-5.98,15.33-11.38,14.41-5.4-.92-9.06-8.86-8.17-17.74s5.98-15.33,11.38-14.41c5.4.92,9.06,8.86,8.17,17.74Z"/>
    </g>
    <g>
      <ellipse cx="1268.27" cy="394.87" rx="31.43" ry="43.42"/>
      <path class="st4" d="M1267.32,390.21c-.89,8.88-5.98,15.33-11.38,14.41-5.4-.92-9.06-8.86-8.17-17.74.89-8.88,5.98-15.33,11.38-14.41,5.4.92,9.06,8.86,8.17,17.74Z"/>
    </g>
  </g>
</svg>